<svg width="399" height="551" viewBox="0 0 399 551" fill="none" xmlns="http://www.w3.org/2000/svg">
<rect y="75" width="290" height="476" rx="145" fill="#D9D9D9" fill-opacity="0.33"/>
<circle cx="218" cy="321" r="115" fill="#D9D9D9"/>
<circle cx="171" cy="115" r="115" fill="#D9D9D9" fill-opacity="0.38"/>
<path d="M168.88 331.36H169.2C169.541 331.36 169.84 331.253 170.096 331.04C170.352 330.784 170.565 330.485 170.736 330.144C170.949 329.803 171.099 329.44 171.184 329.056C171.312 328.672 171.376 328.309 171.376 327.968V293.728C171.376 293.429 171.312 293.088 171.184 292.704C171.099 292.32 170.949 291.957 170.736 291.616C170.565 291.275 170.352 290.997 170.096 290.784C169.84 290.528 169.541 290.4 169.2 290.4H168.88V289.76H178.096V290.4H177.776C177.435 290.4 177.136 290.528 176.88 290.784C176.624 290.997 176.411 291.275 176.24 291.616C176.069 291.957 175.92 292.32 175.792 292.704C175.707 293.088 175.664 293.429 175.664 293.728V329.632H189.68C190.491 329.632 191.195 329.44 191.792 329.056C192.389 328.672 192.88 328.203 193.264 327.648C193.691 327.051 193.989 326.432 194.16 325.792C194.373 325.109 194.48 324.491 194.48 323.936H195.12V332H168.88V331.36ZM200.55 319.072C200.721 320.565 201.083 321.995 201.638 323.36C202.193 324.683 202.918 325.856 203.814 326.88C204.753 327.904 205.883 328.736 207.206 329.376C208.529 329.973 210.065 330.272 211.814 330.272C212.753 330.272 213.734 330.144 214.758 329.888C215.825 329.589 216.806 329.184 217.702 328.672C218.598 328.16 219.387 327.541 220.07 326.816C220.795 326.048 221.286 325.195 221.542 324.256H222.118V329.056C221.862 329.056 221.563 329.141 221.222 329.312C220.923 329.483 220.561 329.696 220.134 329.952C219.281 330.464 218.129 331.019 216.678 331.616C215.227 332.171 213.307 332.448 210.918 332.448C208.998 332.448 207.163 332.171 205.414 331.616C203.707 331.061 202.193 330.208 200.87 329.056C199.547 327.904 198.481 326.432 197.67 324.64C196.902 322.848 196.518 320.715 196.518 318.24C196.518 316.661 196.774 315.061 197.286 313.44C197.841 311.819 198.651 310.368 199.718 309.088C200.827 307.765 202.235 306.699 203.942 305.888C205.649 305.077 207.697 304.672 210.086 304.672C212.219 304.672 214.075 305.035 215.654 305.76C217.275 306.485 218.598 307.488 219.622 308.768C220.689 310.048 221.478 311.563 221.99 313.312C222.502 315.061 222.758 316.981 222.758 319.072H200.55ZM209.83 306.784C208.337 306.784 207.035 307.083 205.926 307.68C204.859 308.277 203.942 309.045 203.174 309.984C202.406 310.923 201.809 311.989 201.382 313.184C200.955 314.379 200.678 315.573 200.55 316.768H218.79C218.747 315.531 218.513 314.315 218.086 313.12C217.702 311.925 217.147 310.859 216.422 309.92C215.697 308.981 214.779 308.235 213.67 307.68C212.561 307.083 211.281 306.784 209.83 306.784ZM232.764 307.296V322.72C232.764 323.829 232.786 324.832 232.828 325.728C232.871 326.624 232.978 327.371 233.148 327.968C233.319 328.565 233.575 329.035 233.917 329.376C234.258 329.675 234.727 329.824 235.325 329.824C236.22 329.824 237.053 329.397 237.821 328.544C238.631 327.691 239.143 326.667 239.356 325.472H239.933V330.144C239.549 330.144 239.228 330.272 238.972 330.528C238.631 330.827 238.14 331.147 237.5 331.488C236.903 331.829 235.986 332 234.748 332C233.212 332 232.018 331.701 231.164 331.104C230.311 330.507 229.692 329.717 229.308 328.736C228.924 327.755 228.69 326.667 228.604 325.472C228.562 324.277 228.54 323.061 228.54 321.824V307.296H224.956V305.12H228.54V299.424C228.54 298.699 228.434 298.037 228.22 297.44C228.05 296.8 227.431 296.459 226.364 296.416V295.776L232.764 293.728V305.12H239.933V307.296H232.764ZM244.358 289.568C245.596 289.568 246.492 289.995 247.046 290.848C247.644 291.659 247.942 292.619 247.942 293.728C247.942 294.411 247.857 295.136 247.686 295.904C247.516 296.672 247.174 297.461 246.662 298.272C246.193 299.083 245.489 299.893 244.55 300.704C243.654 301.472 242.46 302.197 240.966 302.88L240.582 302.304C241.436 301.493 242.097 300.789 242.566 300.192C243.078 299.595 243.462 299.061 243.718 298.592C243.974 298.08 244.124 297.611 244.166 297.184C244.252 296.757 244.294 296.309 244.294 295.84C244.294 295.499 244.188 295.243 243.974 295.072C243.804 294.901 243.569 294.731 243.27 294.56C242.929 294.347 242.588 294.112 242.246 293.856C241.905 293.557 241.734 293.045 241.734 292.32C241.734 291.509 241.99 290.848 242.502 290.336C243.014 289.824 243.633 289.568 244.358 289.568ZM270.467 324.704C270.467 325.813 270.19 326.837 269.635 327.776C269.081 328.715 268.313 329.547 267.331 330.272C266.393 330.955 265.284 331.509 264.003 331.936C262.723 332.32 261.337 332.512 259.843 332.512C258.009 332.512 256.515 332.277 255.363 331.808C254.211 331.296 253.23 330.784 252.419 330.272C251.865 329.931 251.353 329.653 250.883 329.44C250.414 329.184 249.902 329.056 249.347 329.056V324.192H249.987C250.115 324.789 250.478 325.451 251.075 326.176C251.715 326.859 252.462 327.499 253.315 328.096C254.211 328.693 255.171 329.205 256.195 329.632C257.262 330.016 258.329 330.208 259.395 330.208C260.163 330.208 260.953 330.123 261.763 329.952C262.574 329.781 263.299 329.504 263.939 329.12C264.622 328.736 265.177 328.267 265.603 327.712C266.073 327.115 266.307 326.411 266.307 325.6C266.307 324.789 266.073 324.085 265.603 323.488C265.134 322.891 264.537 322.379 263.811 321.952C263.086 321.483 262.254 321.077 261.315 320.736C260.377 320.395 259.438 320.075 258.499 319.776C257.39 319.435 256.259 319.051 255.107 318.624C253.998 318.197 252.995 317.707 252.099 317.152C251.203 316.555 250.478 315.851 249.923 315.04C249.369 314.187 249.091 313.184 249.091 312.032C249.091 311.051 249.262 310.112 249.603 309.216C249.987 308.32 250.585 307.552 251.395 306.912C252.249 306.229 253.337 305.696 254.659 305.312C255.982 304.885 257.582 304.672 259.459 304.672C261.123 304.672 262.403 304.821 263.299 305.12C264.238 305.376 265.006 305.653 265.603 305.952C265.987 306.165 266.371 306.336 266.755 306.464C267.139 306.549 267.566 306.592 268.035 306.592V311.072H267.523C266.755 309.664 265.582 308.597 264.003 307.872C262.425 307.147 260.803 306.784 259.139 306.784C258.073 306.784 257.155 306.933 256.387 307.232C255.619 307.488 254.979 307.829 254.467 308.256C253.998 308.64 253.635 309.088 253.379 309.6C253.166 310.112 253.059 310.624 253.059 311.136C253.059 311.861 253.251 312.48 253.635 312.992C254.062 313.504 254.617 313.952 255.299 314.336C256.025 314.72 256.814 315.083 257.667 315.424C258.563 315.765 259.502 316.085 260.483 316.384C261.678 316.768 262.873 317.195 264.067 317.664C265.262 318.091 266.329 318.624 267.267 319.264C268.206 319.904 268.974 320.672 269.571 321.568C270.169 322.421 270.467 323.467 270.467 324.704ZM314.941 331.36H315.261C315.56 331.36 315.837 331.253 316.093 331.04C316.349 330.784 316.562 330.485 316.733 330.144C316.946 329.76 317.096 329.376 317.181 328.992C317.266 328.565 317.309 328.181 317.309 327.84V310.432H296.829V327.84C296.829 328.181 296.872 328.565 296.957 328.992C297.042 329.376 297.17 329.739 297.341 330.08C297.512 330.421 297.704 330.72 297.917 330.976C298.173 331.232 298.472 331.36 298.813 331.36H299.133V332H290.173V331.36H290.493C290.792 331.36 291.069 331.253 291.325 331.04C291.581 330.784 291.794 330.485 291.965 330.144C292.178 329.76 292.328 329.376 292.413 328.992C292.498 328.565 292.541 328.181 292.541 327.84V293.728C292.541 293.429 292.498 293.088 292.413 292.704C292.328 292.32 292.2 291.957 292.029 291.616C291.858 291.275 291.645 290.997 291.389 290.784C291.133 290.528 290.834 290.4 290.493 290.4H290.173V289.76H299.133V290.4H298.813C298.472 290.4 298.173 290.528 297.917 290.784C297.661 290.997 297.448 291.275 297.277 291.616C297.149 291.957 297.042 292.32 296.957 292.704C296.872 293.088 296.829 293.429 296.829 293.728V308.192H317.309V293.728C317.309 293.429 317.266 293.088 317.181 292.704C317.096 292.32 316.968 291.957 316.797 291.616C316.626 291.275 316.413 290.997 316.157 290.784C315.901 290.528 315.602 290.4 315.261 290.4H314.941V289.76H323.901V290.4H323.581C323.24 290.4 322.941 290.528 322.685 290.784C322.429 290.997 322.216 291.275 322.045 291.616C321.917 291.957 321.81 292.32 321.725 292.704C321.64 293.088 321.597 293.429 321.597 293.728V327.84C321.597 328.181 321.64 328.565 321.725 328.992C321.853 329.376 322.002 329.739 322.173 330.08C322.344 330.421 322.536 330.72 322.749 330.976C323.005 331.232 323.282 331.36 323.581 331.36H323.901V332H314.941V331.36ZM328.514 332V331.36C328.855 331.36 329.154 331.232 329.41 330.976C329.666 330.72 329.879 330.421 330.05 330.08C330.22 329.739 330.348 329.376 330.434 328.992C330.519 328.565 330.562 328.181 330.562 327.84V310.112C330.562 309.387 330.455 308.704 330.242 308.064C330.028 307.381 329.41 307.019 328.386 306.976V306.4L334.786 304.352V327.84C334.786 328.181 334.828 328.565 334.914 328.992C334.999 329.376 335.127 329.739 335.298 330.08C335.468 330.421 335.682 330.72 335.938 330.976C336.194 331.232 336.492 331.36 336.834 331.36V332H328.514ZM328.834 298.208C328.834 297.355 329.111 296.629 329.666 296.032C330.263 295.435 330.988 295.136 331.842 295.136C332.695 295.136 333.42 295.435 334.018 296.032C334.615 296.629 334.914 297.355 334.914 298.208C334.914 299.061 334.615 299.765 334.018 300.32C333.42 300.875 332.695 301.152 331.842 301.152C330.988 301.152 330.263 300.875 329.666 300.32C329.111 299.765 328.834 299.061 328.834 298.208ZM363.392 332C362.667 332 361.984 331.851 361.344 331.552C360.747 331.211 360.213 330.848 359.744 330.464C359.189 329.995 358.677 329.483 358.208 328.928L349.952 318.304L348.608 319.648V327.968C348.608 328.267 348.651 328.608 348.736 328.992C348.821 329.376 348.949 329.76 349.12 330.144C349.333 330.485 349.568 330.784 349.824 331.04C350.08 331.253 350.379 331.36 350.72 331.36V332H342.4V331.36C342.699 331.36 342.976 331.253 343.232 331.04C343.488 330.784 343.701 330.485 343.872 330.144C344.043 329.803 344.171 329.44 344.256 329.056C344.341 328.672 344.384 328.309 344.384 327.968V295.392C344.384 294.795 344.192 294.197 343.808 293.6C343.424 293.003 342.912 292.683 342.272 292.64V292L348.608 290.016V316.704L358.976 306.976C359.189 306.763 359.296 306.507 359.296 306.208C359.296 305.909 359.147 305.76 358.848 305.76V305.12H364.608V305.76C364.352 305.76 364.075 305.824 363.776 305.952C363.52 306.08 363.264 306.229 363.008 306.4C362.709 306.571 362.411 306.784 362.112 307.04L353.024 315.488L362.496 327.456C363.051 328.224 363.605 328.885 364.16 329.44C364.629 329.909 365.12 330.357 365.632 330.784C366.187 331.168 366.656 331.36 367.04 331.36V332H363.392ZM373.438 319.072C373.608 320.565 373.971 321.995 374.526 323.36C375.08 324.683 375.806 325.856 376.702 326.88C377.64 327.904 378.771 328.736 380.094 329.376C381.416 329.973 382.952 330.272 384.702 330.272C385.64 330.272 386.622 330.144 387.646 329.888C388.712 329.589 389.694 329.184 390.59 328.672C391.486 328.16 392.275 327.541 392.958 326.816C393.683 326.048 394.174 325.195 394.43 324.256H395.006V329.056C394.75 329.056 394.451 329.141 394.11 329.312C393.811 329.483 393.448 329.696 393.022 329.952C392.168 330.464 391.016 331.019 389.566 331.616C388.115 332.171 386.195 332.448 383.806 332.448C381.886 332.448 380.051 332.171 378.302 331.616C376.595 331.061 375.08 330.208 373.758 329.056C372.435 327.904 371.368 326.432 370.558 324.64C369.79 322.848 369.406 320.715 369.406 318.24C369.406 316.661 369.662 315.061 370.174 313.44C370.728 311.819 371.539 310.368 372.606 309.088C373.715 307.765 375.123 306.699 376.83 305.888C378.536 305.077 380.584 304.672 382.974 304.672C385.107 304.672 386.963 305.035 388.542 305.76C390.163 306.485 391.486 307.488 392.51 308.768C393.576 310.048 394.366 311.563 394.878 313.312C395.39 315.061 395.646 316.981 395.646 319.072H373.438ZM382.718 306.784C381.224 306.784 379.923 307.083 378.814 307.68C377.747 308.277 376.83 309.045 376.062 309.984C375.294 310.923 374.696 311.989 374.27 313.184C373.843 314.379 373.566 315.573 373.438 316.768H391.678C391.635 315.531 391.4 314.315 390.974 313.12C390.59 311.925 390.035 310.859 389.31 309.92C388.584 308.981 387.667 308.235 386.558 307.68C385.448 307.083 384.168 306.784 382.718 306.784Z" fill="black"/>
</svg>
